# xmcd
#
# Track frame offsets: 
#        150
#        26141
#        45885
#        80263
#        100299
#        118633
#        146091
#        170912
#
# Disc length: 2717 seconds
#
# Revision: 0
# Processed by: cddbd v1.5.2PL0 Copyright (c) Steve Scherf et al.
# Submitted via: ExactAudioCopy v1.0b3
#
DISCID=660a9b08
DTITLE=Kagetomo Nagao - GARNATA
DYEAR=2014
DGENRE=Pop
TTITLE0=Arena del sur
TTITLE1=12 Lunares
TTITLE2=Exilios
TTITLE3=Spring of Timrat
TTITLE4=Buscando Alegria
TTITLE5=Imigurants' dance
TTITLE6=Route 8
TTITLE7=Garnata
EXTD=
EXTT0=
EXTT1=
EXTT2=
EXTT3=
EXTT4=
EXTT5=
EXTT6=
EXTT7=
PLAYORDER=
